<?xml version="1.0" encoding="UTF-8"?>
<svg xmlns="http://www.w3.org/2000/svg" version="1.1" viewBox="0 450 2000 250">
  <style>
    .st0, .st1 {
      fill: #fff;
    }
    .st1 {
      isolation: isolate;
    }
  </style>

  <!-- Logo icon bars -->
  <rect class="st1" x="79.66" y="444.02" width="41.36" height="175.69" rx="19.66" ry="19.66"/>
  <rect class="st1" x="151.51" y="375.6" width="41.36" height="312.53" rx="19.66" ry="19.66"/>
  <rect class="st1" x="223.36" y="332.15" width="41.36" height="396.21" rx="19.66" ry="19.66"/>
  <rect class="st1" x="295.22" y="406.85" width="41.36" height="250.03" rx="19.66" ry="19.66"/>
  <rect class="st1" x="367.07" y="448.08" width="41.36" height="167.58" rx="19.66" ry="19.66"/>

  <!-- VOKS -->
  <g transform="translate(500, 0)">
    <path class="st0" d="M32.16,604.06l-53.69-147.6h35.86l38.35,114.43,38.35-114.43h35.86l-53.69,147.6h-41.05Z"/> <!-- V -->
    <path class="st0" d="M150,530.26c0-44.99,27.57-75.87,74.84-75.87s74.84,30.89,74.84,75.87-27.57,75.87-74.84,75.87-74.84-30.89-74.84-75.87ZM266.3,530.26c0-31.3-13.89-48.72-41.46-48.72s-41.46,17.41-41.46,48.72,13.89,48.72,41.46,48.72,41.46-17.41,41.46-48.72Z"/> <!-- O -->
    <path class="st0" d="M350,604.06v-147.6h28v65l47-65h35l-51,68 55,79h-36l-50-71-0.5,0.5v70.5h-28Z"/> <!-- K -->
    <path class="st0" d="M480,556.59h27.36c2.28,19.49,11.19,28.4,34.21,28.4s32.13-9.54,32.13-23.22c0-10.16-5.6-16.79-28.19-20.11l-18.87-2.7c-30.89-4.35-42.91-15.13-42.91-39.18,0-26.54,18.87-45.4,57.22-45.4s57.22,18.66,57.22,47.47h-26.74c-1.87-17.41-11.4-26.33-31.1-26.33s-28.4,9.12-28.4,22.6c0,10.16,4.77,15.34,24.46,18.04l18.86,2.7c30.06,4.35,46.64,15.76,46.64,41.25,0,27.57-19.9,46.02-60.95,46.02s-60.95-18.04-60.95-49.55Z"/> <!-- S -->
  </g>

  <!-- Studios (Shifted to the right more) -->
  <g transform="translate(950, 0)">
    <path class="st0" d="M0,556.59h27.36c2.28,19.49,11.19,28.4,34.21,28.4s32.13-9.54,32.13-23.22c0-10.16-5.6-16.79-28.19-20.11l-18.87-2.7c-30.89-4.35-42.91-15.13-42.91-39.18,0-26.54,18.87-45.4,57.22-45.4s57.22,18.66,57.22,47.47h-26.74c-1.87-17.41-11.4-26.33-31.1-26.33s-28.4,9.12-28.4,22.6c0,10.16,4.77,15.34,24.46,18.04l18.86,2.7c30.06,4.35,46.64,15.76,46.64,41.25,0,27.57-19.9,46.02-60.95,46.02s-60.95-18.04-60.95-49.55Z"/>
    <path class="st0" d="M170.83,604.06v-124.59h-44.78v-23.01h117.96v23.01h-44.99v124.59h-28.19Z"/>
    <path class="st0" d="M256.45,548.29v-91.84h28.19v89.14c0,27.78,10.57,37.52,34.83,37.52s35.03-9.74,35.03-37.52v-89.14h28.19v91.84c0,38.15-20.52,57.84-63.23,57.84s-63.02-19.69-63.02-57.84Z"/>
    <path class="st0" d="M462.1,604.06h-58.67v-147.6h58.67c48.72,0,73.39,27.57,73.39,73.8s-24.67,73.8-73.39,73.8ZM463.55,478.64h-31.93v103.24h31.93c29.23,0,43.74-17.41,43.74-51.62s-14.51-51.62-43.74-51.62Z"/>
    <path class="st0" d="M552.49,604.06v-147.6h28.19v147.6h-28.19Z"/>
    <path class="st0" d="M597.68,530.26c0-44.99,26.33-75.87,73.18-75.87s73.39,30.89,73.39,75.87-26.33,75.87-73.39,75.87-73.18-30.89-73.18-75.87ZM716.06,530.26c0-34-15.34-52.86-45.19-52.86s-44.99,18.86-44.99,52.86,15.34,52.86,44.99,52.86,45.19-18.87,45.19-52.86Z"/>
    <path class="st0" d="M755.45,556.59h27.36c2.28,19.49,11.19,28.4,34.21,28.4s32.13-9.54,32.13-23.22c0-10.16-5.6-16.79-28.19-20.11l-18.87-2.7c-30.89-4.35-42.91-15.13-42.91-39.18,0-26.54,18.87-45.4,57.22-45.4s57.22,18.66,57.22,47.47h-26.74c-1.87-17.41-11.4-26.33-31.1-26.33s-28.4,9.12-28.4,22.6c0,10.16,4.77,15.34,24.46,18.04l18.86,2.7c30.06,4.35,46.64,15.76,46.64,41.25,0,27.57-19.9,46.02-60.95,46.02s-60.95-18.04-60.95-49.55Z"/>
  </g>
</svg>
